<?xml version="1.0" encoding="utf-8"?>
<!-- Generator: Adobe Illustrator 26.0.2, SVG Export Plug-In . SVG Version: 6.00 Build 0)  -->
<svg version="1.1" id="Слой_1" xmlns="http://www.w3.org/2000/svg" width="400" height="450" xmlns:xlink="http://www.w3.org/1999/xlink" x="0px" y="0px"
	 viewBox="0 0 500 500" style="enable-background:new 0 0 500 500;" xml:space="preserve">
<style type="text/css">
	.st0{fill:#6252C5;}
	.st1{fill:#F4A030;}
	.st2{fill:#C0DD42;}
	.st3{fill:#FF4E7D;}
</style>
<g transform="translate(250,250)">
	<g>
		<path class="st0" d="M-248.7-25c6.8-67.4,40.6-129.2,93.8-171.2L0,0L-248.7-25z"/>
	</g>
	<g>
		<path class="st1" d="M-141.5,206.1C-216.8,154.4-257.9,65.8-248.7-25L0,0L-141.5,206.1z"/>
	</g>
	<g>
		<path class="st2" d="M-154.9-196.2C-110.8-231-56.2-250,0-250V0L-154.9-196.2z"/>
	</g>
	<g>
		<path class="st3" d="M0-250c138.1,0,250,111.9,250,250S138.1,250,0,250c-50.5,0-99.8-15.3-141.5-43.9L0,0V-250z"/>
	</g>
</g>
</svg>
